<svg width="349" height="207" viewBox="0 0 349 207" fill="none" xmlns="http://www.w3.org/2000/svg">
<g clip-path="url(#clip0_1_307)">
<path d="M146.037 330.86C146.062 331.118 146.096 331.378 146.121 331.636C147.01 339.721 147.903 347.812 149.238 356.177C76.0008 368.998 2.81803 382.964 -69.8258 395.11C-70.7077 291.124 -68.3078 186.658 -61.0807 85.201C2.62304 69.553 66.2954 53.7072 129.989 38C130.428 38.2838 130.86 38.571 131.254 41.7118C143.239 144.274 137.164 250.247 146.037 330.86Z" fill="#A0B4BB"/>
<path d="M63 193.854C110.128 130.023 156.338 65.5031 200.61 0C235.882 16.6078 260.27 39.035 293.661 59.1855C311.688 70.0654 333.706 86.8554 348.632 101.379C304.691 166.665 256.818 229.285 204.646 290.05C194.619 285.552 186.532 281.227 176.392 275.438C163.936 268.324 150.512 257.003 137.986 250.006C123.877 242.122 110.924 232.333 98.0278 222.574C86.2025 213.639 74.381 204.698 63 193.854Z" fill="white"/>
</g>
<defs>
<clipPath id="clip0_1_307">
<rect width="391" height="481" fill="white" transform="translate(0 -33)"/>
</clipPath>
</defs>
</svg>
